Coordinates
version=1
nRows=17
nColumns=24
inDegrees=yes

Units are S.I. units (second, meters, Newtons, ...)
Angles are in degrees.

endheader
time	pelvis_tilt	pelvis_list	pelvis_rotation	pelvis_tx	pelvis_ty	pelvis_tz	hip_flexion_r	hip_adduction_r	hip_rotation_r	knee_angle_r	ankle_angle_r	subtalar_angle_r	mtp_angle_r	hip_flexion_l	hip_adduction_l	hip_rotation_l	knee_angle_l	ankle_angle_l	subtalar_angle_l	mtp_angle_l	lumbar_extension	lumbar_bending	lumbar_rotation
      4.63000000	     33.88648132	      1.11145975	      3.23992439	     -0.17694746	      0.68564809	     -0.25796417	    -18.36625693	     -6.77753275	    -19.46128307	    -64.20093785	      9.56484741	      0.56328774	      0.00000000	    -30.55585291	      2.97734387	      2.48058120	    -19.10116591	     14.34447655	     13.17439626	      0.00000000	    -62.76811640	      1.95683939	     -2.33547841
      4.63500000	     33.73776295	      1.11650601	      3.66080371	     -0.17219215	      0.68672343	     -0.25773412	    -17.61848662	     -6.59545079	    -19.86827118	    -63.39837120	      9.94762366	      0.89376956	      0.00000000	    -31.01027020	      2.63953159	      2.53928877	    -18.68911682	     13.96471060	     13.40585576	      0.00000000	    -62.76265868	      2.21613625	     -2.44031867
      4.64000000	     33.64796106	      1.20575240	      4.20324845	     -0.16750175	      0.68777136	     -0.25745005	    -17.03044202	     -6.42912991	    -20.42536974	    -62.44430012	     10.32537442	      1.13685345	      0.00000000	    -31.47737175	      2.29041249	      2.72866475	    -18.35899841	     13.58015310	     13.65237292	      0.00000000	    -62.82937732	      2.46443866	     -2.66532757
      4.64500000	     33.47964291	      1.24120778	      4.43135677	     -0.16275917	      0.68863765	     -0.25709602	    -16.25500755	     -6.34581163	    -20.65260941	    -61.52958650	     10.58460134	      1.22956844	      0.00000000	    -31.90944463	      2.09415322	      2.68947377	    -17.95066302	     13.13128733	     13.71655973	      0.00000000	    -62.80442691	      2.54684349	     -2.70397948
      4.65000000	     33.43660383	      1.37359713	      5.10047124	     -0.15800999	      0.68954243	     -0.25694914	    -15.86486884	     -6.20351668	    -21.38972207	    -60.33612612	     10.89215932	      1.52772804	      0.00000000	    -32.40444315	      1.69311875	      2.91358082	    -17.66586110	     12.88762844	     14.12935025	      0.00000000	    -62.89589094	      2.89589095	     -3.03948559
      4.65500000	     33.30915595	      1.44749097	      5.46307161	     -0.15324716	      0.69026045	     -0.25664645	    -15.27841683	     -6.10159831	    -21.75578651	    -59.17142314	     11.13264988	      1.74043613	      0.00000000	    -32.83739319	      1.43232854	      2.95053662	    -17.33983569	     12.57942226	     14.36344494	      0.00000000	    -62.89945605	      3.05293954	     -3.16397114
      4.66000000	     33.19100769	      1.56862810	      5.85275820	     -0.14849013	      0.69088781	     -0.25632239	    -14.76048736	     -6.04100141	    -22.19395934	    -57.90944740	     11.32748127	      1.85112611	      0.00000000	    -33.26318016	      1.18595903	      2.99203302	    -17.04815729	     12.29896138	     14.65263591	      0.00000000	    -62.91435757	      3.18668623	     -3.36533580
      4.66500000	     33.07937126	      1.71402188	      6.23501412	     -0.14373798	      0.69141615	     -0.25599642	    -14.29112202	     -6.00734381	    -22.63961039	    -56.56077922	     11.48879281	      1.93690941	      0.00000000	    -33.68643630	      0.96332403	      3.04236388	    -16.77851663	     12.03483484	     14.93002343	      0.00000000	    -62.93675109	      3.30065065	     -3.58802425
      4.67000000	     32.94479586	      1.87018280	      6.53520605	     -0.13903480	      0.69181815	     -0.25562711	    -13.79886379	     -6.01219754	    -23.00492092	    -55.15682794	     11.62438002	      1.98426312	      0.00000000	    -34.06412366	      0.80227424	      3.01455467	    -16.55326673	     11.73332165	     15.14595498	      0.00000000	    -62.94926538	      3.35347203	     -3.78439060
      4.67500000	     32.85198062	      2.08287841	      6.96111992	     -0.13422476	      0.69214408	     -0.25528967	    -13.46454091	     -6.02337180	    -23.52479014	    -53.62312901	     11.71873588	      2.02162644	      0.00000000	    -34.50923686	      0.59530877	      3.14539323	    -16.29846815	     11.59210169	     15.52488169	      0.00000000	    -62.97966273	      3.44597795	     -4.08421534
      4.68000000	     32.76398612	      2.30922649	      7.32240418	     -0.12943632	      0.69236465	     -0.25493977	    -13.15803914	     -6.07008025	    -23.99734459	    -52.01854184	     11.78944691	      2.06462595	      0.00000000	    -34.94908241	      0.44318115	      3.23684050	    -16.07575193	     11.41041533	     15.79527106	      0.00000000	    -63.01732126	      3.49298169	     -4.37903452
      4.68500000	     32.65197755	      2.54680699	      7.63016161	     -0.12462326	      0.69245624	     -0.25456198	    -12.84902610	     -6.14150094	    -24.41758311	    -50.34933287	     11.82614558	      2.11352996	      0.00000000	    -35.36033236	      0.33302323	      3.29543650	    -15.87748452	     11.26141728	     16.08652415	      0.00000000	    -63.02379513	      3.49339531	     -4.66495719
      4.69000000	     32.56954875	      2.82954475	      7.98600537	     -0.11980463	      0.69245935	     -0.25418721	    -12.64562341	     -6.23493989	    -24.92288061	    -48.58055424	     11.88133491	      2.15962773	      0.00000000	    -35.80057776	      0.22120732	      3.41985104	    -15.69176825	     11.15571929	     16.36965233	      0.00000000	    -63.06802766	      3.49600898	     -4.97386670
      4.69500000	     32.43167986	      3.09372963	      8.23729617	     -0.11493845	      0.69232500	     -0.25376340	    -12.37674615	     -6.34110036	    -25.30013262	    -46.76914916	     11.84765147	      2.28511491	      0.00000000	    -36.19504449	      0.16156021	      3.46310144	    -15.49892449	     11.06019937	     16.68680895	      0.00000000	    -63.04389973	      3.43804445	     -5.30870077
      4.70000000	     32.35842540	      3.41866328	      8.58416532	     -0.11006522	      0.69214060	     -0.25337025	    -12.28214090	     -6.45560581	    -25.81226119	    -44.82715572	     11.84744494	      2.41631378	      0.00000000	    -36.64628358	      0.08184130	      3.63340940	    -15.34233016	     10.99865114	     16.94412151	      0.00000000	    -63.09361983	      3.40623944	     -5.66510462
      4.70500000	     32.18660508	      3.71033643	      8.76493507	     -0.10515185	      0.69176983	     -0.25290409	    -12.03873492	     -6.59979926	    -26.13510984	    -42.88325889	     11.79621470	      2.63441706	      0.00000000	    -37.00892148	      0.08773012	      3.63382114	    -15.17411779	     10.96652286	     17.27997206	      0.00000000	    -63.03498718	      3.27481367	     -6.00776789
      4.71000000	     32.05703298	      4.04235980	      9.02341167	     -0.10021265	      0.69134978	     -0.25246605	    -11.93647013	     -6.73837813	    -26.57130793	    -40.81168331	     11.75394781	      2.89111309	      0.00000000	    -37.40768203	      0.06819180	      3.74470495	    -15.03608825	     10.96585660	     17.59764680	      0.00000000	    -63.01842748	      3.17614049	     -6.39707493
